<?xml version="1.0" standalone="no"?>
<!DOCTYPE svg PUBLIC "-//W3C//DTD SVG 20010904//EN"
 "http://www.w3.org/TR/2001/REC-SVG-20010904/DTD/svg10.dtd">
<svg version="1.0" xmlns="http://www.w3.org/2000/svg"
 width="1123.000000pt" height="1123.000000pt" viewBox="0 0 1123.000000 1123.000000"
 preserveAspectRatio="xMidYMid meet">
<metadata>
Created by potrace 1.14, written by Peter Selinger 2001-2017
</metadata>
<g transform="translate(0.000000,1123.000000) scale(0.100000,-0.100000)"
fill="#000000" stroke="none">
<path d="M5520 9733 c0 -4 -26 -8 -57 -8 -54 -1 -201 -11 -268 -19 -112 -13
-145 -17 -166 -21 -13 -3 -39 -7 -59 -10 -20 -3 -47 -8 -60 -11 -14 -3 -34 -7
-45 -8 -11 -1 -33 -6 -50 -9 -16 -4 -40 -9 -53 -12 -13 -2 -32 -7 -42 -10 -10
-3 -27 -7 -37 -9 -10 -2 -38 -10 -63 -17 -25 -7 -49 -13 -55 -15 -5 -1 -30 -7
-55 -15 -25 -7 -49 -13 -55 -15 -22 -5 -212 -72 -250 -89 -22 -9 -44 -18 -50
-19 -14 -4 -42 -15 -112 -47 -35 -15 -63 -25 -63 -23 0 3 -7 -2 -16 -10 -8 -9
-23 -16 -33 -16 -9 0 -21 -4 -26 -9 -6 -5 -57 -33 -115 -62 -58 -29 -107 -56
-110 -59 -5 -5 -14 -10 -99 -58 -25 -14 -52 -31 -59 -39 -7 -7 -19 -13 -27
-13 -7 0 -15 -3 -17 -7 -1 -5 -30 -26 -63 -47 -62 -41 -246 -175 -255 -185 -3
-4 -27 -25 -55 -46 -27 -22 -63 -51 -79 -65 -55 -46 -351 -344 -391 -394 -22
-27 -46 -55 -53 -63 -15 -15 -130 -161 -152 -193 -8 -12 -33 -47 -55 -78 -22
-32 -56 -82 -75 -112 -19 -30 -38 -56 -42 -58 -5 -2 -8 -8 -8 -13 0 -5 -19
-39 -42 -76 -60 -100 -200 -382 -248 -503 -67 -169 -140 -388 -174 -525 -14
-56 -18 -75 -31 -142 -3 -16 -8 -35 -10 -43 -2 -8 -7 -28 -9 -45 -3 -16 -12
-69 -20 -117 -8 -47 -18 -115 -22 -150 -9 -83 -8 -81 -17 -95 -5 -8 -3 -13 3
-13 6 0 8 -5 5 -10 -24 -39 -23 -530 0 -760 17 -158 24 -212 40 -280 3 -14 7
-42 10 -64 3 -21 7 -42 10 -46 3 -5 7 -21 9 -37 5 -41 42 -184 76 -298 17 -55
32 -107 34 -115 20 -70 114 -311 146 -373 11 -22 20 -45 20 -52 0 -7 3 -15 8
-17 4 -1 18 -28 32 -58 33 -72 112 -219 161 -297 22 -34 39 -66 39 -71 0 -4 9
-15 20 -25 11 -9 20 -22 20 -29 0 -7 11 -26 25 -42 14 -16 25 -33 25 -37 0 -4
6 -14 13 -21 7 -7 31 -38 52 -68 159 -227 433 -519 679 -722 216 -178 454
-335 716 -470 122 -63 346 -163 352 -157 2 1 14 -3 27 -10 31 -17 149 -61 180
-67 13 -3 31 -9 40 -13 9 -5 18 -9 21 -9 5 -1 10 -2 80 -23 25 -8 48 -15 53
-15 4 -1 8 -2 10 -3 1 -2 13 -5 27 -8 14 -2 30 -6 35 -7 6 -2 24 -6 40 -10 17
-4 55 -13 85 -21 30 -8 71 -16 90 -19 19 -2 44 -6 55 -9 41 -9 121 -22 205
-32 19 -2 53 -6 75 -9 190 -26 725 -27 849 -1 12 2 46 7 76 10 101 11 135 15
160 21 14 3 36 8 50 10 24 4 120 24 150 31 8 2 26 6 40 8 14 2 75 18 135 35
61 16 117 32 125 34 46 13 257 88 320 115 41 17 80 31 87 31 7 0 13 5 13 12 0
6 3 8 6 5 4 -3 16 -1 28 5 11 7 23 13 26 13 6 1 228 113 292 148 26 13 60 34
76 46 17 11 33 21 36 21 4 0 19 8 34 19 15 10 72 48 127 84 55 36 111 75 124
86 13 12 27 21 31 21 3 0 15 8 26 17 11 10 40 34 64 53 87 67 104 82 190 158
114 102 360 353 360 368 0 2 10 15 23 28 37 38 63 70 144 180 111 150 137 187
159 226 10 19 22 37 25 40 8 6 44 65 61 100 7 14 15 27 18 30 22 22 190 362
246 500 28 71 140 401 148 441 3 13 10 42 16 64 6 22 15 60 20 85 5 25 17 77
25 115 19 88 42 233 51 320 2 22 7 74 11 115 5 41 8 197 8 345 0 274 -5 366
-30 533 -3 18 -7 52 -10 75 -3 23 -8 53 -10 67 -3 14 -10 48 -16 75 -13 63
-17 84 -24 115 -4 14 -8 36 -11 50 -18 86 -48 187 -108 365 -71 209 -102 281
-206 489 -105 208 -111 221 -121 224 -5 2 -9 8 -9 13 0 5 -12 28 -27 52 -78
123 -139 215 -160 242 -35 45 -37 47 -63 85 -13 19 -27 37 -30 40 -3 3 -21 25
-40 50 -19 25 -37 47 -40 50 -3 3 -32 37 -65 75 -103 121 -329 340 -459 447
-12 10 -28 23 -36 30 -8 7 -53 41 -100 76 -47 35 -93 70 -103 78 -9 8 -21 14
-26 14 -5 0 -11 3 -13 8 -3 8 -152 107 -208 138 -19 10 -37 21 -40 24 -23 23
-434 226 -442 218 -2 -1 -16 5 -33 15 -34 18 -88 41 -155 64 -25 8 -56 20 -70
26 -14 5 -30 11 -37 13 -7 1 -45 12 -85 25 -40 13 -76 24 -80 25 -5 1 -11 3
-15 4 -5 1 -12 3 -18 4 -5 1 -17 5 -25 8 -23 10 -153 41 -225 54 -16 3 -61 11
-100 19 -75 14 -154 27 -195 31 -14 1 -50 5 -80 9 -93 12 -138 15 -334 20
-104 3 -193 8 -197 11 -5 3 -9 2 -9 -3z"/>
</g>
</svg>
