<svg xmlns="http://www.w3.org/2000/svg"  viewBox="0 0 24 24" width="24px" height="24px"><path d="M14.44,0.98H10c-4.34,0-8,3.46-8,7.55v3.49c0,3.39,1.02,5.59,3.12,6.72v2.3c0,0.78,0.47,1.48,1.18,1.78 c0.25,0.11,0.5,0.16,0.76,0.16c0.49,0,0.98-0.19,1.35-0.55l2.96-2.86h3.07c4.17,0,7.56-3.39,7.56-7.55V8.53 C22,4.36,18.61,0.98,14.44,0.98z M16.82,14.69c-0.15,0.2-0.33,0.42-0.51,0.64c-0.52,0.6-1.37,0.82-2.11,0.51 c-1.69-0.69-3.71-2.09-4.99-3.27C8.17,11.6,6.93,9.34,6.19,7.88C5.8,7.1,6.02,6.16,6.72,5.62L7.3,5.17 c0.42-0.32,1.02-0.23,1.32,0.2l1.14,1.61c0.27,0.39,0.2,0.92-0.17,1.22L9.28,8.46C9.01,8.69,8.89,9.05,8.97,9.39 c0.15,0.56,0.55,1.38,1.27,2.15c0.87,0.93,1.63,1.24,2.1,1.34c0.31,0.06,0.62-0.06,0.83-0.29l0.31-0.35 c0.31-0.39,0.87-0.47,1.27-0.18l1.87,1.35C17.04,13.71,17.12,14.28,16.82,14.69z M12.5,8.48c0-0.28,0.22-0.5,0.5-0.5 c1.2,0,2,0.8,2,2c0,0.28-0.22,0.5-0.5,0.5S14,10.26,14,9.98c0-0.64-0.35-1-1-1C12.72,8.98,12.5,8.76,12.5,8.48z M16.5,10.48 c-0.28,0-0.5-0.22-0.5-0.5c0-1.51-1.49-3-3-3c-0.28,0-0.5-0.22-0.5-0.5s0.22-0.5,0.5-0.5c2.06,0,4,1.94,4,4 C17,10.26,16.78,10.48,16.5,10.48z M18.5,10.48c-0.28,0-0.5-0.22-0.5-0.5c0-2.37-2.05-5-5-5c-0.28,0-0.5-0.22-0.5-0.5 s0.22-0.5,0.5-0.5c3.54,0,6,3.16,6,6C19,10.26,18.78,10.48,18.5,10.48z"/></svg>